<?xml version="1.0" encoding="utf-8" standalone="no"?>
<!DOCTYPE svg PUBLIC "-//W3C//DTD SVG 1.1//EN"
  "http://www.w3.org/Graphics/SVG/1.1/DTD/svg11.dtd">
<svg xmlns:xlink="http://www.w3.org/1999/xlink" width="191.065641pt" height="114.1343pt" viewBox="0 0 191.065641 114.1343" xmlns="http://www.w3.org/2000/svg" version="1.1">
 <metadata>
  <rdf:RDF xmlns:dc="http://purl.org/dc/elements/1.1/" xmlns:cc="http://creativecommons.org/ns#" xmlns:rdf="http://www.w3.org/1999/02/22-rdf-syntax-ns#">
   <cc:Work>
    <dc:type rdf:resource="http://purl.org/dc/dcmitype/StillImage"/>
    <dc:date>2025-07-08T12:56:30.138029</dc:date>
    <dc:format>image/svg+xml</dc:format>
    <dc:creator>
     <cc:Agent>
      <dc:title>Matplotlib v3.10.0, https://matplotlib.org/</dc:title>
     </cc:Agent>
    </dc:creator>
   </cc:Work>
  </rdf:RDF>
 </metadata>
 <defs>
  <style type="text/css">*{stroke-linejoin: round; stroke-linecap: butt}</style>
 </defs>
 <g id="figure_1">
  <g id="patch_1">
   <path d="M 0 114.1343 
L 191.065641 114.1343 
L 191.065641 0 
L 0 0 
z
" style="fill: #ffffff"/>
  </g>
  <g id="axes_1">
   <g id="patch_2">
    <path d="M 33.487969 79.510519 
L 167.965969 79.510519 
L 167.965969 25.733719 
L 33.487969 25.733719 
z
" style="fill: #ffffff"/>
   </g>
   <g id="FillBetweenPolyCollection_1">
    <defs>
     <path id="m21697a5fef" d="M 58.48159 -34.623794 
L 58.48159 -34.623781 
L 59.001046 -34.623781 
L 59.520502 -34.623781 
L 60.039958 -34.623781 
L 60.559414 -34.623781 
L 61.07887 -34.623781 
L 61.598326 -34.623781 
L 62.117782 -34.623781 
L 62.637238 -34.623781 
L 63.156694 -34.623781 
L 63.67615 -34.623781 
L 64.195606 -34.623781 
L 64.715062 -34.623781 
L 65.234518 -34.623781 
L 65.753974 -34.623781 
L 66.27343 -34.623781 
L 66.792886 -34.623781 
L 67.312342 -34.623781 
L 67.831798 -34.623781 
L 68.351254 -34.623781 
L 68.87071 -34.623781 
L 69.390166 -34.623781 
L 69.909622 -34.623781 
L 70.429078 -34.623781 
L 70.948534 -34.623781 
L 71.46799 -34.623781 
L 71.987446 -34.623781 
L 72.506902 -34.623781 
L 73.026358 -34.623781 
L 73.545814 -34.623781 
L 74.06527 -34.623781 
L 74.584726 -34.623781 
L 75.104182 -34.623781 
L 75.623638 -34.623781 
L 76.143094 -34.623781 
L 76.66255 -34.623781 
L 77.182006 -34.623781 
L 77.701462 -34.623781 
L 78.220918 -34.623781 
L 78.740374 -34.623781 
L 79.25983 -34.623781 
L 79.779286 -34.623781 
L 80.298742 -34.623781 
L 80.818198 -34.623781 
L 81.337654 -34.623781 
L 81.85711 -34.623781 
L 82.376566 -34.623781 
L 82.896022 -34.623781 
L 83.415478 -34.623781 
L 83.934934 -34.623781 
L 84.45439 -34.623781 
L 84.973846 -34.623781 
L 85.493302 -34.623781 
L 86.012758 -34.623781 
L 86.532214 -34.623781 
L 87.05167 -34.623781 
L 87.571126 -34.623781 
L 88.090582 -34.623781 
L 88.610038 -34.623781 
L 89.129494 -34.623781 
L 89.64895 -34.623781 
L 90.168405 -34.623781 
L 90.687861 -34.623781 
L 91.207317 -34.623781 
L 91.726773 -34.623781 
L 92.246229 -34.623781 
L 92.765685 -34.623781 
L 93.285141 -34.623781 
L 93.804597 -34.623781 
L 94.324053 -34.623781 
L 94.843509 -34.623781 
L 95.362965 -34.623781 
L 95.882421 -34.623781 
L 96.401877 -34.623781 
L 96.921333 -34.623781 
L 97.440789 -34.623781 
L 97.960245 -34.623781 
L 98.479701 -34.623781 
L 98.999157 -34.623781 
L 99.518613 -34.623781 
L 100.038069 -34.623781 
L 100.557525 -34.623781 
L 101.076981 -34.623781 
L 101.596437 -34.623781 
L 102.115893 -34.623781 
L 102.635349 -34.623781 
L 103.154805 -34.623781 
L 103.674261 -34.623781 
L 104.193717 -34.623781 
L 104.713173 -34.623781 
L 105.232629 -34.623781 
L 105.752085 -34.623781 
L 106.271541 -34.623781 
L 106.790997 -34.623781 
L 107.310453 -34.623781 
L 107.829909 -34.623781 
L 108.349365 -34.623781 
L 108.868821 -34.623781 
L 109.388277 -34.623781 
L 109.907733 -34.623781 
L 110.427189 -34.623781 
L 110.946645 -34.623781 
L 111.466101 -34.623781 
L 111.985557 -34.623781 
L 112.505013 -34.623781 
L 113.024469 -34.623781 
L 113.543925 -34.623781 
L 114.063381 -34.623781 
L 114.582837 -34.623781 
L 115.102293 -34.623781 
L 115.621749 -34.623781 
L 116.141205 -34.623781 
L 116.660661 -34.623781 
L 117.180117 -34.623781 
L 117.699573 -34.623781 
L 118.219029 -34.623781 
L 118.738485 -34.623781 
L 119.257941 -34.623781 
L 119.777397 -34.623781 
L 120.296853 -34.623781 
L 120.816309 -34.623781 
L 121.335765 -34.623781 
L 121.855221 -34.623781 
L 122.374677 -34.623781 
L 122.894133 -34.623781 
L 123.413589 -34.623781 
L 123.933045 -34.623781 
L 124.452501 -34.623781 
L 124.971957 -34.623781 
L 125.491413 -34.623781 
L 126.010869 -34.623781 
L 126.530325 -34.623781 
L 127.049781 -34.623781 
L 127.569237 -34.623781 
L 128.088693 -34.623781 
L 128.608149 -34.623781 
L 129.127605 -34.623781 
L 129.647061 -34.623781 
L 130.166517 -34.623781 
L 130.685973 -34.623781 
L 131.205429 -34.623781 
L 131.724885 -34.623781 
L 132.244341 -34.623781 
L 132.763797 -34.623781 
L 133.283253 -34.623781 
L 133.802709 -34.623781 
L 134.322165 -34.623781 
L 134.841621 -34.623781 
L 135.361077 -34.623781 
L 135.880533 -34.623781 
L 136.399989 -34.623781 
L 136.919445 -34.623781 
L 137.438901 -34.623781 
L 137.958357 -34.623781 
L 138.477813 -34.623781 
L 138.997269 -34.623781 
L 139.516725 -34.623781 
L 140.036181 -34.623781 
L 140.555637 -34.623781 
L 141.075093 -34.623781 
L 141.594549 -34.623781 
L 142.114005 -34.623781 
L 142.633461 -34.623781 
L 143.152917 -34.623781 
L 143.672373 -34.623781 
L 144.191829 -34.623781 
L 144.711285 -34.623781 
L 145.230741 -34.623781 
L 145.750197 -34.623781 
L 146.269653 -34.623781 
L 146.789109 -34.623781 
L 147.308565 -34.623781 
L 147.828021 -34.623781 
L 148.347477 -34.623781 
L 148.866933 -34.623781 
L 149.386389 -34.623781 
L 149.905845 -34.623781 
L 150.425301 -34.623781 
L 150.944757 -34.623781 
L 151.464213 -34.623781 
L 151.983669 -34.623781 
L 152.503125 -34.623781 
L 153.022581 -34.623781 
L 153.542037 -34.623781 
L 154.061493 -34.623781 
L 154.580948 -34.623781 
L 155.100404 -34.623781 
L 155.61986 -34.623781 
L 156.139316 -34.623781 
L 156.658772 -34.623781 
L 157.178228 -34.623781 
L 157.697684 -34.623781 
L 158.21714 -34.623781 
L 158.736596 -34.623781 
L 159.256052 -34.623781 
L 159.775508 -34.623781 
L 160.294964 -34.623781 
L 160.81442 -34.623781 
L 161.333876 -34.623781 
L 161.853332 -34.623781 
L 161.853332 -34.623811 
L 161.853332 -34.623811 
L 161.333876 -34.623824 
L 160.81442 -34.623844 
L 160.294964 -34.623872 
L 159.775508 -34.62391 
L 159.256052 -34.623963 
L 158.736596 -34.624037 
L 158.21714 -34.624137 
L 157.697684 -34.624272 
L 157.178228 -34.624454 
L 156.658772 -34.624698 
L 156.139316 -34.625021 
L 155.61986 -34.625447 
L 155.100404 -34.626007 
L 154.580948 -34.626735 
L 154.061493 -34.627678 
L 153.542037 -34.628891 
L 153.022581 -34.63044 
L 152.503125 -34.632406 
L 151.983669 -34.634882 
L 151.464213 -34.63798 
L 150.944757 -34.641828 
L 150.425301 -34.646577 
L 149.905845 -34.652396 
L 149.386389 -34.659479 
L 148.866933 -34.668048 
L 148.347477 -34.678353 
L 147.828021 -34.690675 
L 147.308565 -34.705334 
L 146.789109 -34.722689 
L 146.269653 -34.743148 
L 145.750197 -34.767172 
L 145.230741 -34.795283 
L 144.711285 -34.828071 
L 144.191829 -34.866203 
L 143.672373 -34.910432 
L 143.152917 -34.961601 
L 142.633461 -35.02065 
L 142.114005 -35.088628 
L 141.594549 -35.166687 
L 141.075093 -35.256095 
L 140.555637 -35.358233 
L 140.036181 -35.474592 
L 139.516725 -35.606781 
L 138.997269 -35.756516 
L 138.477813 -35.925622 
L 137.958357 -36.116027 
L 137.438901 -36.329754 
L 136.919445 -36.568918 
L 136.399989 -36.835713 
L 135.880533 -37.132401 
L 135.361077 -37.461301 
L 134.841621 -37.824767 
L 134.322165 -38.225169 
L 133.802709 -38.66487 
L 133.283253 -39.146195 
L 132.763797 -39.671399 
L 132.244341 -40.242631 
L 131.724885 -40.861893 
L 131.205429 -41.531 
L 130.685973 -42.251532 
L 130.166517 -43.024791 
L 129.647061 -43.851753 
L 129.127605 -44.733022 
L 128.608149 -45.668793 
L 128.088693 -46.658802 
L 127.569237 -47.7023 
L 127.049781 -48.798019 
L 126.530325 -49.944151 
L 126.010869 -51.13833 
L 125.491413 -52.377625 
L 124.971957 -53.658537 
L 124.452501 -54.977006 
L 123.933045 -56.328422 
L 123.413589 -57.707642 
L 122.894133 -59.109007 
L 122.374677 -60.526373 
L 121.855221 -61.953126 
L 121.335765 -63.38222 
L 120.816309 -64.806199 
L 120.296853 -66.217236 
L 119.777397 -67.607164 
L 119.257941 -68.967527 
L 118.738485 -70.289624 
L 118.219029 -71.564578 
L 117.699573 -72.783406 
L 117.180117 -73.937111 
L 116.660661 -75.016781 
L 116.141205 -76.013706 
L 115.621749 -76.919505 
L 115.102293 -77.726258 
L 114.582837 -78.426652 
L 114.063381 -79.014109 
L 113.543925 -79.482928 
L 113.024469 -79.828398 
L 112.505013 -80.046907 
L 111.985557 -80.136015 
L 111.466101 -80.094519 
L 110.946645 -79.922473 
L 110.427189 -79.621194 
L 109.907733 -79.193224 
L 109.388277 -78.642287 
L 108.868821 -77.973198 
L 108.349365 -77.191775 
L 107.829909 -76.304721 
L 107.310453 -75.319501 
L 106.790997 -74.244216 
L 106.271541 -73.08747 
L 105.752085 -71.858238 
L 105.232629 -70.565746 
L 104.713173 -69.219353 
L 104.193717 -67.828438 
L 103.674261 -66.402302 
L 103.154805 -64.95008 
L 102.635349 -63.48066 
L 102.115893 -62.002613 
L 101.596437 -60.524133 
L 101.076981 -59.052989 
L 100.557525 -57.596482 
L 100.038069 -56.161414 
L 99.518613 -54.754059 
L 98.999157 -53.380148 
L 98.479701 -52.044852 
L 97.960245 -50.752779 
L 97.440789 -49.507967 
L 96.921333 -48.313884 
L 96.401877 -47.17343 
L 95.882421 -46.08894 
L 95.362965 -45.062194 
L 94.843509 -44.094421 
L 94.324053 -43.186314 
L 93.804597 -42.338047 
L 93.285141 -41.549289 
L 92.765685 -40.819235 
L 92.246229 -40.146636 
L 91.726773 -39.529834 
L 91.207317 -38.966809 
L 90.687861 -38.455226 
L 90.168405 -37.992489 
L 89.64895 -37.5758 
L 89.129494 -37.202215 
L 88.610038 -36.868701 
L 88.090582 -36.572191 
L 87.571126 -36.309635 
L 87.05167 -36.078045 
L 86.532214 -35.874531 
L 86.012758 -35.696334 
L 85.493302 -35.540844 
L 84.973846 -35.405625 
L 84.45439 -35.288417 
L 83.934934 -35.187141 
L 83.415478 -35.099903 
L 82.896022 -35.024986 
L 82.376566 -34.960842 
L 81.85711 -34.906087 
L 81.337654 -34.859486 
L 80.818198 -34.819946 
L 80.298742 -34.7865 
L 79.779286 -34.7583 
L 79.25983 -34.734602 
L 78.740374 -34.714757 
L 78.220918 -34.698202 
L 77.701462 -34.684446 
L 77.182006 -34.673064 
L 76.66255 -34.663689 
L 76.143094 -34.656006 
L 75.623638 -34.649739 
L 75.104182 -34.644656 
L 74.584726 -34.640553 
L 74.06527 -34.637259 
L 73.545814 -34.634626 
L 73.026358 -34.63253 
L 72.506902 -34.630866 
L 71.987446 -34.629547 
L 71.46799 -34.6285 
L 70.948534 -34.627667 
L 70.429078 -34.627001 
L 69.909622 -34.626463 
L 69.390166 -34.626024 
L 68.87071 -34.625663 
L 68.351254 -34.625361 
L 67.831798 -34.625107 
L 67.312342 -34.624891 
L 66.792886 -34.624706 
L 66.27343 -34.624547 
L 65.753974 -34.624411 
L 65.234518 -34.624295 
L 64.715062 -34.624196 
L 64.195606 -34.624113 
L 63.67615 -34.624044 
L 63.156694 -34.623987 
L 62.637238 -34.62394 
L 62.117782 -34.623903 
L 61.598326 -34.623873 
L 61.07887 -34.62385 
L 60.559414 -34.623831 
L 60.039958 -34.623818 
L 59.520502 -34.623807 
L 59.001046 -34.6238 
L 58.48159 -34.623794 
z
" style="stroke: #1f77b4"/>
    </defs>
    <g clip-path="url(#p82885c5a7a)">
     <use xlink:href="#m21697a5fef" x="0" y="114.1343" style="fill: #1f77b4; fill-opacity: 0.25; stroke: #1f77b4"/>
    </g>
   </g>
   <g id="patch_3">
    <path d="M 71.555408 79.510519 
L 76.703682 79.510519 
L 76.703682 79.506191 
L 71.555408 79.506191 
z
" clip-path="url(#p82885c5a7a)" style="fill: #1f77b4; opacity: 0.3"/>
   </g>
   <g id="patch_4">
    <path d="M 76.703682 79.510519 
L 81.851955 79.510519 
L 81.851955 79.501863 
L 76.703682 79.501863 
z
" clip-path="url(#p82885c5a7a)" style="fill: #1f77b4; opacity: 0.3"/>
   </g>
   <g id="patch_5">
    <path d="M 81.851955 79.510519 
L 87.000229 79.510519 
L 87.000229 79.328756 
L 81.851955 79.328756 
z
" clip-path="url(#p82885c5a7a)" style="fill: #1f77b4; opacity: 0.3"/>
   </g>
   <g id="patch_6">
    <path d="M 87.000229 79.510519 
L 92.148503 79.510519 
L 92.148503 78.207885 
L 87.000229 78.207885 
z
" clip-path="url(#p82885c5a7a)" style="fill: #1f77b4; opacity: 0.3"/>
   </g>
   <g id="patch_7">
    <path d="M 92.148503 79.510519 
L 97.296777 79.510519 
L 97.296777 73.166131 
L 92.148503 73.166131 
z
" clip-path="url(#p82885c5a7a)" style="fill: #1f77b4; opacity: 0.3"/>
   </g>
   <g id="patch_8">
    <path d="M 97.296777 79.510519 
L 102.445051 79.510519 
L 102.445051 60.144124 
L 97.296777 60.144124 
z
" clip-path="url(#p82885c5a7a)" style="fill: #1f77b4; opacity: 0.3"/>
   </g>
   <g id="patch_9">
    <path d="M 102.445051 79.510519 
L 107.593324 79.510519 
L 107.593324 41.907255 
L 102.445051 41.907255 
z
" clip-path="url(#p82885c5a7a)" style="fill: #1f77b4; opacity: 0.3"/>
   </g>
   <g id="patch_10">
    <path d="M 107.593324 79.510519 
L 112.741598 79.510519 
L 112.741598 28.294519 
L 107.593324 28.294519 
z
" clip-path="url(#p82885c5a7a)" style="fill: #1f77b4; opacity: 0.3"/>
   </g>
   <g id="patch_11">
    <path d="M 112.741598 79.510519 
L 117.889872 79.510519 
L 117.889872 31.918956 
L 112.741598 31.918956 
z
" clip-path="url(#p82885c5a7a)" style="fill: #1f77b4; opacity: 0.3"/>
   </g>
   <g id="patch_12">
    <path d="M 117.889872 79.510519 
L 123.038146 79.510519 
L 123.038146 48.022275 
L 117.889872 48.022275 
z
" clip-path="url(#p82885c5a7a)" style="fill: #1f77b4; opacity: 0.3"/>
   </g>
   <g id="patch_13">
    <path d="M 123.038146 79.510519 
L 128.186419 79.510519 
L 128.186419 64.655737 
L 123.038146 64.655737 
z
" clip-path="url(#p82885c5a7a)" style="fill: #1f77b4; opacity: 0.3"/>
   </g>
   <g id="patch_14">
    <path d="M 128.186419 79.510519 
L 133.334693 79.510519 
L 133.334693 74.529352 
L 128.186419 74.529352 
z
" clip-path="url(#p82885c5a7a)" style="fill: #1f77b4; opacity: 0.3"/>
   </g>
   <g id="patch_15">
    <path d="M 133.334693 79.510519 
L 138.482967 79.510519 
L 138.482967 78.309586 
L 133.334693 78.309586 
z
" clip-path="url(#p82885c5a7a)" style="fill: #1f77b4; opacity: 0.3"/>
   </g>
   <g id="patch_16">
    <path d="M 138.482967 79.510519 
L 143.631241 79.510519 
L 143.631241 79.276824 
L 138.482967 79.276824 
z
" clip-path="url(#p82885c5a7a)" style="fill: #1f77b4; opacity: 0.3"/>
   </g>
   <g id="patch_17">
    <path d="M 143.631241 79.510519 
L 148.779515 79.510519 
L 148.779515 79.504027 
L 143.631241 79.504027 
z
" clip-path="url(#p82885c5a7a)" style="fill: #1f77b4; opacity: 0.3"/>
   </g>
   <g id="matplotlib.axis_1">
    <g id="xtick_1">
     <g id="line2d_1">
      <defs>
       <path id="md957ef14e9" d="M 0 0 
L 0 3.5 
" style="stroke: #000000; stroke-width: 0.8"/>
      </defs>
      <g>
       <use xlink:href="#md957ef14e9" x="34.274805" y="79.510519" style="stroke: #000000; stroke-width: 0.8"/>
      </g>
     </g>
     <g id="text_1">
      <text style="font-size: 5px; font-family: 'Arial'; text-anchor: middle" x="34.274805" y="90.089425" transform="rotate(-0 34.274805 90.089425)">0</text>
     </g>
    </g>
    <g id="xtick_2">
     <g id="line2d_2">
      <g>
       <use xlink:href="#md957ef14e9" x="60.903807" y="79.510519" style="stroke: #000000; stroke-width: 0.8"/>
      </g>
     </g>
     <g id="text_2">
      <text style="font-size: 5px; font-family: 'Arial'; text-anchor: middle" x="60.903807" y="90.089425" transform="rotate(-0 60.903807 90.089425)">10</text>
     </g>
    </g>
    <g id="xtick_3">
     <g id="line2d_3">
      <g>
       <use xlink:href="#md957ef14e9" x="87.532809" y="79.510519" style="stroke: #000000; stroke-width: 0.8"/>
      </g>
     </g>
     <g id="text_3">
      <text style="font-size: 5px; font-family: 'Arial'; text-anchor: middle" x="87.532809" y="90.089425" transform="rotate(-0 87.532809 90.089425)">20</text>
     </g>
    </g>
    <g id="xtick_4">
     <g id="line2d_4">
      <g>
       <use xlink:href="#md957ef14e9" x="114.161812" y="79.510519" style="stroke: #000000; stroke-width: 0.8"/>
      </g>
     </g>
     <g id="text_4">
      <text style="font-size: 5px; font-family: 'Arial'; text-anchor: middle" x="114.161812" y="90.089425" transform="rotate(-0 114.161812 90.089425)">30</text>
     </g>
    </g>
    <g id="xtick_5">
     <g id="line2d_5">
      <g>
       <use xlink:href="#md957ef14e9" x="140.790814" y="79.510519" style="stroke: #000000; stroke-width: 0.8"/>
      </g>
     </g>
     <g id="text_5">
      <text style="font-size: 5px; font-family: 'Arial'; text-anchor: middle" x="140.790814" y="90.089425" transform="rotate(-0 140.790814 90.089425)">40</text>
     </g>
    </g>
    <g id="xtick_6">
     <g id="line2d_6">
      <g>
       <use xlink:href="#md957ef14e9" x="167.419816" y="79.510519" style="stroke: #000000; stroke-width: 0.8"/>
      </g>
     </g>
     <g id="text_6">
      <text style="font-size: 5px; font-family: 'Arial'; text-anchor: middle" x="167.419816" y="90.089425" transform="rotate(-0 167.419816 90.089425)">50</text>
     </g>
    </g>
    <g id="text_7">
     <text style="font-size: 6px; font-family: 'Arial'" transform="translate(43.241344 99.395675)">unique mutations in chr5:1295113,1295135</text>
     <text style="font-size: 6px; font-family: 'Arial'" transform="translate(100.726969 105.7418)"/>
    </g>
   </g>
   <g id="matplotlib.axis_2">
    <g id="ytick_1">
     <g id="line2d_7">
      <defs>
       <path id="mb467b39542" d="M 0 0 
L -3.5 0 
" style="stroke: #000000; stroke-width: 0.8"/>
      </defs>
      <g>
       <use xlink:href="#mb467b39542" x="33.487969" y="79.510519" style="stroke: #000000; stroke-width: 0.8"/>
      </g>
     </g>
     <g id="text_8">
      <text style="font-size: 5px; font-family: 'Arial'; text-anchor: end" x="26.487969" y="81.299972" transform="rotate(-0 26.487969 81.299972)">0.00</text>
     </g>
    </g>
    <g id="ytick_2">
     <g id="line2d_8">
      <g>
       <use xlink:href="#mb467b39542" x="33.487969" y="58.59337" style="stroke: #000000; stroke-width: 0.8"/>
      </g>
     </g>
     <g id="text_9">
      <text style="font-size: 5px; font-family: 'Arial'; text-anchor: end" x="26.487969" y="60.382823" transform="rotate(-0 26.487969 60.382823)">0.05</text>
     </g>
    </g>
    <g id="ytick_3">
     <g id="line2d_9">
      <g>
       <use xlink:href="#mb467b39542" x="33.487969" y="37.676221" style="stroke: #000000; stroke-width: 0.8"/>
      </g>
     </g>
     <g id="text_10">
      <text style="font-size: 5px; font-family: 'Arial'; text-anchor: end" x="26.487969" y="39.465674" transform="rotate(-0 26.487969 39.465674)">0.10</text>
     </g>
    </g>
    <g id="text_11">
     <text style="font-size: 6px; font-family: 'Arial'; text-anchor: middle" x="11.494687" y="52.622119" transform="rotate(-90 11.494687 52.622119)">density</text>
    </g>
   </g>
   <g id="line2d_10">
    <path d="M 39.600605 79.510519 
L 39.600605 25.733719 
" clip-path="url(#p82885c5a7a)" style="fill: none; stroke-dasharray: 5.55,2.4; stroke-dashoffset: 0; stroke: #ff0000; stroke-width: 1.5"/>
   </g>
   <g id="patch_18">
    <path d="M 33.487969 79.510519 
L 33.487969 25.733719 
" style="fill: none; stroke: #000000; stroke-width: 0.8; stroke-linejoin: miter; stroke-linecap: square"/>
   </g>
   <g id="patch_19">
    <path d="M 33.487969 79.510519 
L 167.965969 79.510519 
" style="fill: none; stroke: #000000; stroke-width: 0.8; stroke-linejoin: miter; stroke-linecap: square"/>
   </g>
   <g id="text_12">
    <text style="font-size: 5px; font-family: 'Arial'" transform="translate(47.589306 52.19962)">observed=2</text>
    <!--  $p&lt;10^{-5}$ -->
    <g transform="translate(47.589306 58.59337)">
     <text>
      <tspan x="0" y="-0.5375" style="font-size: 5px; font-family: 'Arial'"> </tspan>
      <tspan x="1.38916" y="-0.5375" style="font-style: oblique; font-size: 5px; font-family: 'DejaVu Sans'">p</tspan>
      <tspan x="5.537109" y="-0.5375" style="font-size: 5px; font-family: 'DejaVu Sans'">&lt;</tspan>
      <tspan x="10.700684" y="-0.5375" style="font-size: 5px; font-family: 'DejaVu Sans'">1</tspan>
      <tspan x="13.881836" y="-0.5375" style="font-size: 5px; font-family: 'DejaVu Sans'">0</tspan>
      <tspan x="17.11084" y="-2.451563" style="font-size: 3.5px; font-family: 'DejaVu Sans'">−</tspan>
      <tspan x="20.043457" y="-2.451563" style="font-size: 3.5px; font-family: 'DejaVu Sans'">5</tspan>
     </text>
    </g>
   </g>
   <g id="text_13">
    <text style="font-size: 7px; font-family: 'Arial'" transform="translate(17.588297 12.210469)">pTERT hotspots: expected vs observed mutation load</text>
    <!-- (non-smokers or age$\leq$55 yo) -->
    <g transform="translate(54.386969 19.733719)">
     <text>
      <tspan x="0" y="-0.90625" style="font-size: 7px; font-family: 'Arial'">(</tspan>
      <tspan x="2.331055" y="-0.90625" style="font-size: 7px; font-family: 'Arial'">n</tspan>
      <tspan x="6.224121" y="-0.90625" style="font-size: 7px; font-family: 'Arial'">o</tspan>
      <tspan x="10.117188" y="-0.90625" style="font-size: 7px; font-family: 'Arial'">n</tspan>
      <tspan x="14.010254" y="-0.90625" style="font-size: 7px; font-family: 'Arial'">-</tspan>
      <tspan x="16.341309" y="-0.90625" style="font-size: 7px; font-family: 'Arial'">s</tspan>
      <tspan x="19.841309" y="-0.90625" style="font-size: 7px; font-family: 'Arial'">m</tspan>
      <tspan x="25.672363" y="-0.90625" style="font-size: 7px; font-family: 'Arial'">o</tspan>
      <tspan x="29.56543" y="-0.90625" style="font-size: 7px; font-family: 'Arial'">k</tspan>
      <tspan x="33.06543" y="-0.90625" style="font-size: 7px; font-family: 'Arial'">e</tspan>
      <tspan x="36.958496" y="-0.90625" style="font-size: 7px; font-family: 'Arial'">r</tspan>
      <tspan x="39.289551" y="-0.90625" style="font-size: 7px; font-family: 'Arial'">s</tspan>
      <tspan x="42.789551" y="-0.90625" style="font-size: 7px; font-family: 'Arial'"> </tspan>
      <tspan x="44.734375" y="-0.90625" style="font-size: 7px; font-family: 'Arial'">o</tspan>
      <tspan x="48.627441" y="-0.90625" style="font-size: 7px; font-family: 'Arial'">r</tspan>
      <tspan x="50.958496" y="-0.90625" style="font-size: 7px; font-family: 'Arial'"> </tspan>
      <tspan x="52.90332" y="-0.90625" style="font-size: 7px; font-family: 'Arial'">a</tspan>
      <tspan x="56.796387" y="-0.90625" style="font-size: 7px; font-family: 'Arial'">g</tspan>
      <tspan x="60.689453" y="-0.90625" style="font-size: 7px; font-family: 'Arial'">e</tspan>
      <tspan x="73.175293" y="-0.90625" style="font-size: 7px; font-family: 'Arial'">5</tspan>
      <tspan x="77.068359" y="-0.90625" style="font-size: 7px; font-family: 'Arial'">5</tspan>
      <tspan x="80.961426" y="-0.90625" style="font-size: 7px; font-family: 'Arial'"> </tspan>
      <tspan x="82.90625" y="-0.90625" style="font-size: 7px; font-family: 'Arial'">y</tspan>
      <tspan x="86.40625" y="-0.90625" style="font-size: 7px; font-family: 'Arial'">o</tspan>
      <tspan x="90.299316" y="-0.90625" style="font-size: 7px; font-family: 'Arial'">)</tspan>
      <tspan x="65.946289" y="-0.90625" style="font-size: 7px; font-family: 'DejaVu Sans'">≤</tspan>
     </text>
    </g>
   </g>
   <g id="legend_1">
    <g id="patch_20">
     <path d="M 41.211869 52.622119 
L 43.211869 52.622119 
Q 44.211869 52.622119 44.211869 51.622119 
L 44.211869 49.622119 
Q 44.211869 48.622119 43.211869 48.622119 
L 41.211869 48.622119 
Q 40.211869 48.622119 40.211869 49.622119 
L 40.211869 51.622119 
Q 40.211869 52.622119 41.211869 52.622119 
z
" style="fill: #ffffff; opacity: 0.8; stroke: #cccccc; stroke-linejoin: miter"/>
    </g>
   </g>
  </g>
 </g>
 <defs>
  <clipPath id="p82885c5a7a">
   <rect x="33.487969" y="25.733719" width="134.478" height="53.7768"/>
  </clipPath>
 </defs>
</svg>
